<svg width="928" height="519" xmlns="http://www.w3.org/2000/svg" baseProfile="tiny" version="1.1">

 <g>
  <title>Layer 1</title>
  <path transform="rotate(-37, 458, 255)" id="svg_3" d="m771.72001,547.46002l75.27,-44.52l6.01,-14.81l-9.72,-9.53l-22.36,-19.78l-30.01,-21.65l-12.02,-3.69l-20.51,-8.79l-18.37,-7.9l-19.53,-13.12l-13.03,-15.57l-11.08,-18.34l-5.87,-14.17l-11.89,-16.47l-15.24,-11.45l-19.23,-11.22l-18.73,-10.81l-10.45,-8.42l-88.9,-70.9l-27.98,-10.54l-24.97,-11.6l-17.49,-15.16l-18.92,-20.23l-14.83,-16.1l-68.52,-67.85l-119.38,-113.22l-17.76,-9.08l-32.53,12.62l-0.64,0.35l-89.88,49.3l-30.16,20.64l150.16,119.97l15.75,14.39l45.67,-20.07l29.14,17.48l58.99,14.31l161.55,141.21l29.18,6.33l31.93,17.14l27.1,14.49l57.73,68.09l19.38,39.84l82.14,68.83z"/>
 </g>
</svg>