<svg width="256" height="256" xmlns="http://www.w3.org/2000/svg" baseProfile="tiny" version="1.1">

 <g>
  <title>Layer 1</title>
  <g transform="rotate(90 128 128)" id="svg_1">
   <g id="svg_2" fill="#000000" stroke-width="0.98">
    <path id="svg_3" d="m55.86,177.63l0,-6.23l-0.19,-10.97l0,-3.22l-0.18,-7.18l0,-0.38l0,-6.05l-0.19,-5.29l0,-1.52l0,-8.13l-0.19,-11.34l-0.19,-8.7l0,-9.08l-0.19,-0.94l0,-5.86l0,-7.76l-0.19,-2.46l-0.19,-0.94l-0.19,-1.32l-0.19,-10.78l-0.19,-1.33l0,-8.88l0,-0.19l0.19,-6.62l0.19,-7.56l4.54,-0.19l6.43,0l1.7,-0.19l1.51,-0.19l1.14,-0.19l1.13,-0.57l0.19,0l0.95,-0.56l0.94,-0.76l0.76,-0.57l0.57,-0.56l0.75,-1.14l0.38,-0.94l0.19,-0.95l0,-1.89l0,-1.51l-0.95,-7.38l0.38,-0.75l0.19,-0.57l0.38,-1.51l0.57,-1.52l0.38,-1.13l0.56,-1.51l0.95,-1.33l0.75,-1.13l0.57,-0.76l1.14,-1.13l1.32,-1.33l1.13,-0.94l1.14,-0.76l1.32,-0.94l1.33,-0.76l1.32,-0.57l1.7,-0.75l1.14,-0.38l3.02,-1.14l6.62,-2.45l1.7,-0.57l0.76,-0.19l0.94,-0.19l0.76,0l0.76,0l1.51,0.19l1.51,0.57l1.7,0.56l0.95,0.57l0.75,0.57l0.95,0.57l0.57,0.56l1.13,0.95l0.76,0.94l0.75,0.95l0.57,1.51l0.57,1.33l0.19,1.7l0.19,15.5l0,2.84l0,0.57l-0.19,0.56l-0.19,0.76l-0.19,0.57l-0.19,0.56l-0.76,1.14l-0.75,1.13l-0.76,0.76l-1.51,1.13l-2.27,1.52l-6.43,3.78l-3.78,2.08l-3.4,1.89l-10.78,5.86l-0.19,0.19l-0.76,0.57l-0.75,0.56l-0.76,0.76l-0.57,0.76l-0.38,0.56l-0.37,0.76l-0.38,0.76l-0.19,0.75l0,0.57l0,0.95l0.19,0.75l0,0.76l0.38,0.75l0.37,0.95l0.57,0.76l0.76,1.13l1.7,1.51l1.51,0.95l1.89,0.94l1.7,0.76l2.08,0.38l2.08,0.19l0.57,0l1.89,0l1.89,-0.38l2.08,-0.57l1.33,-0.38l1.89,-0.94l1.7,-0.95l2.08,-0.94l2.08,-1.14l1.13,-0.56l0.95,-0.38l1.32,-0.38l1.14,-0.19l0.94,0l1.33,0.19l1.13,0.38l0.95,0.19l1.32,0.75l1.32,0.95l0.57,0.38l0.38,0.38l0.57,0.56l0.56,0.76l0.57,0.76l0.57,0.75l0.38,0.95l0.19,0.94l0.18,0.57l0,0.38l0,0.94l0,2.46l0,3.59l0.19,8.7l0.19,2.65l0.19,10.4l0.19,14.18l0.19,6.05l0,22.88l0.19,1.7l0.19,13.99l0,0.19l0.19,2.08l0.19,1.33l0.56,1.13l1.33,1.89l1.32,1.52l0.95,0.75l0.94,0.76l1.89,0.94l1.52,0.57l1.89,0.38l1.32,0.19l1.7,0.19l6.43,-0.38l5.86,0l0.95,0l0.75,0l1.52,0.38l1.7,0.56l1.89,0.76l1.13,0.76l0.95,0.75l1.13,1.14l0.57,0.75l0.57,0.95l0.38,1.13l0.37,0.95l0.76,1.32l0.76,0.76l1.13,0.94l0.95,0.76l1.13,0.57l1.33,0.57l1.32,0.37l1.51,0.19l1.51,0l0.38,0l15.51,-0.94l1.51,0l1.13,0l0.57,0l1.14,0.38l0.94,0.56l0.57,0.38l0.57,0.57l0.56,0.57l0.76,1.32l0.76,1.51l0.94,2.08l0.38,1.7l0.57,2.27l0.19,2.46l-0.19,2.84l-0.38,1.89l-0.76,3.59l-0.56,2.84l-0.76,3.78l-0.57,3.21l-0.75,4.16l-1.14,4.54l-0.19,0.95l-0.19,0.37l-0.56,1.52l-0.76,1.7l-0.19,0l-0.95,1.7l-2.64,3.78l-2.46,3.22l-0.19,0.19l-2.84,1.51l-3.59,2.08l-2.08,0.94l-2.27,0.95l-0.94,0.38l-1.71,0.56l-1.89,0.57l-2.64,0.57l-2.27,0.38l-0.19,0l-3.4,0.56l-3.98,0.38l-2.64,0.19l-7.38,0l-13.23,0.19l-8.89,0l-1.7,0l-1.89,0.19l-2.46,-0.19l-2.08,-0.19l-1.51,0l-2.27,-0.38l-5.86,-2.08l-1.52,-0.37l-1.13,-0.57l-0.57,-0.38l-0.57,-0.38l-0.37,-0.38l-0.19,-0.37l-0.19,-0.57l-0.19,-0.57l0,-0.38l0,-0.38l0,-0.56l0.19,-0.38l0,-0.19l0.19,-0.19l0.19,-0.38l0.37,-0.56l0.57,-0.38l0.38,-0.38l0.38,-0.19l0.57,-0.19l0.37,-0.19l0.76,-0.19l2.08,-0.19l1.13,-0.37l1.14,-0.38l1.13,-0.57l0.76,-0.38l0.57,-0.57l0.75,-0.56l0.57,-0.57l0.57,-0.76l0.56,-1.13l0.38,-1.51l0.19,-0.57l0,-0.57l0,-0.38l0,-0.56l-0.38,-1.14l-0.37,-0.75l-0.38,-0.76l-0.38,-0.57l-0.57,-0.56l-0.57,-0.76l-0.75,-0.57l-0.76,-0.94l-0.75,-0.38l-7.38,2.27l-13.99,4.35l-2.08,0.56l-2.46,0.38l-1.89,0.19l-1.89,0.19l-2.08,-0.19l-2.08,-0.19l-2.84,-0.38l-1.13,-0.19l-1.32,-0.37l-1.9,-0.57l-0.94,-0.38l-0.57,-0.19l-1.7,-0.94l-1.89,-0.95l-1.89,-1.13l-0.95,-0.95l-0.94,-0.76l-1.33,-1.13l-1.32,-1.89l-1.13,-1.51l-0.19,-0.19l-0.76,-1.14l-0.95,-2.08l-1.13,-2.27l-2.27,-5.1l0,-2.84l0,-0.57l-0.19,-11.53l0,-0.38l-0.19,-11.34l-0.19,-5.68z"/>
   </g>
  </g>
 </g>
</svg>